<?xml version="1.0" standalone="no"?>
<!DOCTYPE svg PUBLIC "-//W3C//DTD SVG 20010904//EN"
 "http://www.w3.org/TR/2001/REC-SVG-20010904/DTD/svg10.dtd">
<svg version="1.0" xmlns="http://www.w3.org/2000/svg"
 width="1280.000000pt" height="1280.000000pt" viewBox="0 0 1280.000000 1280.000000"
 preserveAspectRatio="xMidYMid meet">
<metadata>
Created by potrace 1.11, written by Peter Selinger 2001-2013
</metadata>
<g transform="translate(0.000000,1280.000000) scale(0.100000,-0.100000)"
fill="#000000" stroke="none">
<path d="M3047 9932 c-118 -140 -153 -181 -197 -230 -17 -18 -30 -35 -30 -37
0 -3 -8 -13 -17 -24 -33 -34 -69 -76 -134 -151 -35 -41 -68 -80 -74 -86 -5 -6
-30 -35 -55 -64 -25 -30 -54 -64 -65 -76 -11 -12 -36 -41 -56 -65 -21 -24 -48
-55 -60 -70 -13 -14 -37 -42 -54 -63 -16 -21 -43 -53 -60 -71 -16 -18 -46 -51
-65 -75 -19 -23 -44 -52 -55 -64 -20 -23 -105 -121 -138 -160 -72 -85 -106
-125 -134 -155 -17 -20 -64 -74 -103 -121 -109 -127 -164 -192 -175 -204 -10
-12 -117 -136 -146 -171 -10 -11 -30 -34 -46 -52 -15 -17 -42 -49 -60 -70 -18
-21 -44 -51 -58 -68 -15 -16 -45 -52 -68 -79 -23 -28 -51 -60 -62 -72 -11 -12
-38 -43 -60 -70 -22 -26 -49 -58 -60 -70 -11 -12 -27 -31 -35 -41 -38 -46
-187 -219 -200 -233 -8 -9 -34 -38 -57 -65 -23 -28 -51 -61 -63 -75 -12 -14
-41 -47 -64 -73 -22 -27 -50 -59 -61 -71 -11 -12 -39 -44 -62 -72 -23 -27 -51
-60 -63 -74 -11 -14 -36 -42 -53 -63 -18 -21 -41 -48 -52 -60 -18 -20 -84 -97
-138 -161 -69 -81 -114 -132 -127 -146 -43 -45 -43 -47 -13 -79 15 -17 39 -45
53 -62 14 -17 34 -41 45 -53 20 -22 103 -119 140 -163 11 -13 31 -37 45 -52
14 -15 45 -52 70 -81 25 -29 50 -58 55 -64 18 -20 120 -139 181 -211 32 -38
71 -83 85 -100 34 -37 54 -61 99 -114 43 -52 65 -76 113 -129 20 -23 37 -43
37 -45 0 -3 16 -22 36 -43 20 -22 50 -56 67 -77 18 -21 41 -49 52 -61 11 -13
40 -47 65 -76 25 -29 52 -61 60 -70 8 -8 49 -56 90 -105 41 -49 82 -96 90
-105 24 -26 117 -134 180 -209 19 -23 44 -52 55 -65 11 -12 41 -47 67 -77 25
-30 54 -64 65 -75 10 -12 38 -45 63 -74 25 -29 52 -60 60 -70 8 -10 38 -44 65
-76 28 -32 68 -79 90 -104 41 -48 117 -136 154 -180 38 -44 85 -100 114 -133
15 -18 35 -41 45 -52 10 -11 60 -69 112 -130 51 -60 99 -115 104 -121 6 -6 27
-30 46 -54 19 -24 40 -48 47 -55 12 -13 126 -145 158 -184 11 -14 38 -45 60
-70 22 -25 67 -77 100 -116 33 -38 64 -75 70 -81 5 -6 30 -34 54 -62 l44 -51
130 207 c72 114 134 209 139 210 4 2 8 9 8 16 0 6 7 21 15 31 28 37 65 96 65
104 0 4 9 16 20 26 11 10 20 23 20 28 0 6 11 25 25 43 14 18 25 35 25 38 0 5
29 51 101 159 22 32 39 61 39 65 0 4 7 17 15 27 30 39 104 157 110 176 4 10
10 19 15 19 17 0 18 29 2 48 -9 11 -33 39 -54 63 -20 24 -46 55 -58 69 -12 14
-31 36 -42 50 -12 14 -44 52 -73 85 -28 33 -60 71 -71 84 -10 13 -24 28 -29
35 -6 6 -35 40 -65 76 -30 36 -63 72 -72 81 -10 9 -18 19 -18 23 0 3 -8 14
-17 24 -10 10 -36 39 -58 66 -22 26 -45 53 -50 59 -93 109 -131 153 -135 157
-3 3 -49 57 -102 120 -53 63 -104 124 -115 135 -10 11 -52 61 -93 110 -41 50
-77 92 -80 95 -8 7 -103 120 -126 149 -11 13 -26 31 -35 40 -8 9 -37 43 -65
76 -27 32 -56 66 -64 75 -8 9 -31 36 -52 61 -20 24 -46 55 -58 69 -12 14 -40
47 -63 74 -23 28 -51 60 -62 72 -18 21 -77 90 -115 134 -8 10 -30 37 -49 59
-18 23 -52 62 -75 88 -22 25 -48 55 -56 67 -8 12 -26 33 -40 48 -14 15 -38 43
-55 64 -16 20 -38 44 -47 53 -24 21 -23 24 15 64 17 20 59 68 92 107 33 39 68
81 78 92 9 12 17 25 17 30 0 4 6 8 13 8 7 0 20 12 29 28 9 15 29 41 45 57 15
17 45 51 65 75 33 41 67 81 100 120 83 96 151 176 188 220 25 30 56 67 70 82
14 14 39 43 55 64 17 20 39 47 50 60 11 12 34 39 50 59 17 19 39 46 50 58 11
13 38 45 60 71 22 27 49 58 60 71 11 12 38 44 60 70 22 26 47 55 55 64 8 9 51
59 95 111 44 52 84 100 90 106 5 6 28 33 50 60 22 27 49 58 60 70 11 11 38 43
60 70 22 27 52 63 66 79 27 30 125 145 209 245 25 29 54 64 65 76 18 20 57 67
120 142 23 27 50 58 85 98 66 75 64 65 20 133 -22 34 -40 66 -40 71 0 6 -4 10
-10 10 -5 0 -10 6 -10 14 0 8 -4 16 -8 18 -7 3 -86 125 -136 211 -10 18 -22
34 -27 35 -5 2 -9 9 -9 15 0 7 -14 30 -30 51 -17 22 -30 45 -30 52 0 7 -4 14
-9 16 -5 2 -17 17 -27 35 -18 29 -197 314 -271 428 -18 28 -37 55 -43 62 -5 7
-10 15 -10 18 0 9 -44 75 -50 74 -3 0 -53 -57 -113 -127z"/>
<path d="M9625 10040 c-3 -11 -11 -20 -16 -20 -5 0 -9 -5 -9 -10 0 -6 -16 -33
-35 -60 -19 -28 -32 -50 -28 -50 5 0 3 -4 -3 -8 -5 -4 -53 -74 -104 -157 -52
-82 -97 -152 -101 -155 -3 -3 -12 -16 -19 -30 -13 -26 -83 -136 -132 -207 -15
-23 -28 -46 -28 -52 0 -6 -4 -11 -10 -11 -5 0 -10 -4 -10 -10 0 -8 -43 -77
-110 -180 -6 -8 -30 -46 -54 -85 -25 -38 -50 -75 -55 -82 -16 -18 -13 -50 7
-70 10 -10 40 -45 68 -78 27 -33 54 -65 59 -71 16 -19 92 -107 115 -134 12
-14 38 -45 58 -69 21 -25 57 -68 82 -96 25 -29 62 -72 82 -96 20 -24 46 -55
58 -69 12 -14 38 -45 58 -69 21 -24 42 -49 48 -55 5 -6 37 -42 69 -81 33 -38
64 -75 70 -82 5 -6 28 -33 50 -59 22 -27 58 -69 80 -94 22 -25 60 -70 85 -100
39 -47 139 -164 204 -240 11 -14 46 -54 76 -90 30 -35 60 -70 66 -76 5 -6 26
-31 45 -54 18 -23 39 -47 45 -54 10 -10 149 -173 241 -282 23 -27 50 -59 61
-72 11 -13 35 -41 54 -64 18 -23 38 -46 44 -52 10 -11 138 -160 238 -279 l49
-57 -22 -19 c-11 -10 -21 -23 -21 -29 0 -6 -6 -15 -13 -19 -7 -4 -35 -35 -62
-68 -28 -33 -58 -67 -67 -76 -10 -9 -18 -19 -18 -23 0 -3 -8 -14 -17 -24 -31
-33 -87 -96 -133 -152 -25 -30 -61 -73 -80 -95 -20 -22 -58 -67 -85 -100 -55
-66 -94 -112 -111 -129 -6 -6 -27 -33 -47 -59 -20 -27 -37 -46 -37 -42 0 3
-20 -19 -45 -50 -58 -71 -78 -94 -90 -109 -5 -6 -37 -43 -70 -81 -33 -39 -69
-81 -81 -95 -26 -29 -131 -154 -160 -188 -10 -13 -28 -34 -39 -46 -11 -12 -40
-47 -65 -76 -25 -30 -52 -61 -60 -70 -8 -9 -33 -38 -55 -65 -22 -28 -47 -57
-55 -65 -8 -9 -37 -43 -65 -75 -27 -33 -58 -69 -67 -80 -9 -11 -26 -31 -38
-45 -12 -14 -38 -45 -58 -69 -21 -24 -42 -49 -47 -55 -6 -6 -46 -54 -90 -106
-107 -127 -127 -149 -150 -175 -11 -13 -38 -44 -60 -71 -22 -26 -59 -70 -82
-97 -37 -43 -41 -52 -30 -70 7 -11 17 -27 22 -37 6 -9 39 -61 74 -116 36 -54
80 -124 99 -154 19 -30 45 -71 57 -90 118 -183 155 -242 155 -250 0 -6 5 -10
10 -10 6 0 10 -7 10 -15 0 -8 5 -15 10 -15 6 0 10 -4 10 -10 0 -8 71 -124 129
-209 9 -13 21 -31 26 -40 6 -8 31 -48 58 -89 26 -40 47 -77 47 -81 0 -4 9 -16
20 -26 11 -10 20 -13 20 -7 0 6 8 19 19 29 10 10 44 50 76 88 65 78 87 103
128 146 15 16 27 32 27 34 0 3 15 20 33 39 36 39 61 68 115 134 20 25 46 55
57 67 20 20 45 50 185 215 40 47 77 90 84 95 6 6 27 30 46 55 19 25 37 47 41
50 3 3 24 25 45 51 21 25 62 71 89 104 28 32 55 63 60 69 6 6 35 40 65 76 30
35 69 80 87 100 29 33 124 144 217 254 22 27 53 62 69 77 15 16 27 31 27 34 0
3 8 13 18 23 9 10 40 44 67 76 28 33 64 75 81 95 18 20 87 101 155 181 68 80
133 155 144 166 11 12 34 39 52 60 17 22 46 55 63 74 17 19 48 55 68 79 87
103 152 178 175 203 9 10 17 20 17 22 0 3 16 22 36 43 20 21 50 55 68 77 17
21 36 43 41 50 6 6 53 60 105 121 52 60 100 115 105 121 6 6 28 32 50 59 22
26 52 61 66 78 15 16 31 35 36 41 5 6 30 34 54 62 24 27 64 74 89 104 25 29
55 64 68 76 12 13 22 25 22 28 0 3 18 24 40 48 63 66 63 68 22 115 -21 23 -54
61 -74 85 -78 92 -114 133 -136 157 -13 14 -35 40 -50 59 -15 19 -34 42 -43
51 -8 9 -40 45 -70 80 -30 36 -61 72 -69 81 -8 8 -33 38 -55 64 -22 27 -51 61
-65 76 -14 15 -41 46 -60 70 -19 24 -46 55 -60 70 -14 15 -44 50 -66 76 -23
27 -52 60 -64 74 -12 14 -39 45 -59 70 -20 25 -41 50 -47 55 -5 6 -35 39 -65
75 -30 36 -63 74 -74 86 -11 12 -33 38 -50 59 -16 20 -37 44 -45 53 -17 18
-109 126 -151 176 -13 16 -29 34 -34 40 -6 6 -41 47 -79 91 -38 44 -80 93 -94
109 -14 16 -79 93 -145 170 -66 78 -128 150 -138 161 -11 11 -36 40 -56 65
-21 24 -50 57 -65 73 -16 16 -28 31 -28 33 0 3 -6 11 -12 18 -7 7 -34 37 -60
67 -26 30 -56 65 -68 79 -12 14 -39 45 -59 69 -20 25 -45 54 -56 66 -11 11
-39 43 -62 70 -23 28 -51 61 -63 75 -12 14 -39 45 -60 70 -21 25 -48 56 -60
70 -12 14 -70 81 -129 150 -58 68 -113 132 -121 141 -8 8 -24 26 -35 40 -11
13 -76 89 -145 169 -68 80 -131 153 -140 164 -8 10 -34 39 -57 65 -23 25 -43
49 -43 54 0 15 -19 6 -25 -13z"/>
<path d="M6757 9990 c-6 -3 -13 -9 -14 -15 -1 -5 -20 -71 -43 -145 -41 -135
-83 -274 -102 -340 -6 -19 -15 -41 -20 -47 -6 -7 -8 -13 -5 -13 3 0 -1 -19 -8
-42 -7 -24 -39 -126 -70 -228 -56 -183 -94 -305 -99 -325 -2 -5 -6 -23 -11
-40 -4 -16 -10 -34 -14 -40 -3 -5 -6 -14 -7 -20 -1 -5 -18 -64 -38 -130 -21
-66 -38 -124 -39 -130 -2 -5 -5 -14 -9 -20 -3 -5 -9 -26 -14 -45 -10 -42 -9
-41 -17 -60 -8 -22 -57 -187 -62 -207 -2 -10 -9 -31 -15 -48 -6 -16 -13 -37
-15 -45 -2 -8 -16 -53 -30 -100 -15 -47 -31 -101 -36 -120 -6 -19 -12 -42 -15
-50 -3 -8 -5 -16 -5 -17 0 -2 -7 -22 -15 -45 -9 -24 -17 -50 -19 -58 -11 -52
-69 -237 -77 -247 -5 -7 -7 -17 -4 -22 4 -5 2 -12 -3 -15 -8 -6 -26 -73 -23
-88 1 -5 -2 -8 -6 -8 -5 0 -9 -6 -9 -12 0 -7 -26 -96 -57 -198 -32 -102 -59
-192 -61 -200 -2 -8 -4 -16 -5 -17 -2 -2 -3 -6 -4 -10 -5 -21 -38 -130 -43
-143 -3 -8 -7 -20 -8 -25 -2 -6 -19 -64 -40 -130 -51 -168 -121 -394 -151
-495 -14 -47 -30 -96 -34 -110 -19 -55 -62 -196 -65 -210 -6 -25 -57 -193 -65
-215 -5 -11 -12 -33 -16 -50 -8 -34 -9 -35 -17 -55 -5 -13 -38 -121 -43 -142
-1 -5 -3 -10 -4 -13 -1 -3 -3 -8 -4 -12 -11 -40 -33 -113 -58 -188 -16 -49
-31 -97 -33 -105 -3 -14 -52 -178 -147 -485 -22 -71 -52 -173 -68 -225 -15
-52 -33 -107 -39 -122 -6 -16 -8 -28 -5 -28 4 0 1 -7 -6 -15 -7 -8 -9 -15 -5
-15 4 0 1 -7 -6 -17 -8 -9 -13 -18 -12 -19 5 -8 -10 -65 -18 -70 -5 -3 -7 -9
-4 -14 3 -5 1 -19 -5 -30 -6 -12 -13 -29 -15 -38 -2 -9 -35 -123 -75 -252 -40
-129 -73 -241 -75 -250 -2 -8 -18 -58 -35 -110 -18 -52 -33 -104 -36 -114 -4
-20 -31 -109 -41 -136 -3 -8 -7 -22 -9 -30 -2 -9 -16 -55 -32 -103 l-28 -87
65 0 c702 -3 1315 0 1321 7 7 7 33 87 123 383 20 63 50 162 68 220 18 58 34
110 35 115 5 21 65 221 71 235 8 19 7 16 22 70 6 25 15 52 18 60 3 8 7 20 9
27 1 6 14 49 29 95 16 46 29 90 30 98 1 8 5 22 8 30 4 8 22 67 41 130 49 162
73 240 109 355 17 55 32 105 33 110 3 11 70 230 115 375 17 52 31 100 33 105
1 6 9 30 16 55 7 25 14 50 16 55 1 6 9 30 17 55 9 25 21 65 27 89 6 24 16 55
22 70 6 14 12 31 13 37 5 21 52 176 110 364 15 47 28 90 29 95 1 6 17 57 36
115 18 58 34 110 35 115 3 11 58 192 160 525 32 102 58 190 59 195 1 6 7 24
13 40 15 41 44 139 42 145 -1 3 6 23 15 45 10 22 17 40 16 40 -1 0 1 7 4 15 6
17 48 160 52 175 1 6 14 48 29 95 14 47 28 93 30 103 2 9 7 22 10 27 3 5 8 19
10 29 3 17 50 173 75 251 4 14 18 59 30 100 13 41 25 82 28 90 3 8 6 18 7 23
2 4 3 8 5 10 1 1 3 9 5 17 1 8 10 38 18 65 43 139 103 334 170 555 41 135 82
265 90 290 8 25 18 61 22 80 4 19 11 40 15 45 4 6 11 26 15 45 4 19 10 40 13
45 4 6 7 15 8 21 2 12 49 166 71 234 8 25 17 54 19 64 2 11 16 56 31 100 15
45 27 86 28 91 0 6 11 44 24 85 13 41 24 79 25 85 1 9 -1353 15 -1377 5z"/>
</g>
</svg>
